<svg width="338" height="273" viewBox="0 0 338 273" fill="none" xmlns="http://www.w3.org/2000/svg">
<path d="M200.107 216.577C180.802 209.967 156.245 210.159 137.021 217.088C130.746 219.356 125.061 222.358 120.207 226.988C116.104 230.9 112.703 237.558 116.104 242.492C115.928 239.267 116.279 236.504 118.004 234.045C119.68 231.666 121.453 229.08 124.135 227.786C119.297 232.273 116.136 238.037 118.706 244.568C118.738 240.911 119.329 237.925 121.532 235.115C123.88 232.113 126.53 229.607 129.883 227.691C137.563 223.3 145.691 220.649 154.473 219.244C163.925 217.743 173.09 217.456 182.575 218.781C193.161 220.282 208.186 224.417 214.429 233.55C217.479 237.989 216.968 242.955 213.695 247.346C217.016 246.069 219.091 243.258 220.034 240.273L219.411 238.005C218.804 235.754 218.197 233.806 217.463 231.618C219.523 233.487 219.858 236.009 220.704 238.724C225.319 227.754 208.138 219.308 200.091 216.561L200.107 216.577Z" fill="#FFBB00"/>
<path d="M157.41 188.665C147.16 189.91 137.26 191.635 127.728 195.499C113.277 201.358 91.626 214.212 101.094 232.031C97.438 213.557 121.756 201.087 135.935 197.734C129.468 200.416 123.113 202.732 117.221 206.644C108.072 212.743 100.025 221.365 103.969 233.053C103.905 227.369 105.741 222.834 109.589 218.906C122.89 205.35 146.042 200.129 164.548 199.299C181.233 198.548 200.921 201.55 215.882 209.262C224.776 213.845 236.495 223.201 231.785 234.73C235.921 232.255 235.569 226.922 235.697 222.738C235.985 223.026 236.32 223.872 236.304 224.351L236.176 229.349C241.094 223.76 238.252 216.176 233.621 210.683C217.287 191.283 181.329 185.791 157.379 188.697L157.41 188.665Z" fill="#FFBB00"/>
<path d="M189.345 229.846C173.729 225.056 154.249 226.605 139.543 233.614C134.801 235.882 131.065 239.155 128.366 243.626C126.865 246.117 125.844 249.134 127.76 251.673C127.153 249.15 127.297 246.739 129.324 245.494C128.766 247.41 128.271 248.991 128.877 250.939C129.931 246.867 131.975 243.961 135.456 241.758C138.697 239.714 141.906 237.957 145.707 236.808C159.949 232.497 175.166 232.193 189.393 236.52C195.891 238.5 202.262 243.179 204.338 249.518C205.903 246.963 204.45 244.648 203.3 242.253C205.487 243.993 206.589 246.388 206.893 249.055C210.645 238.676 197.089 232.209 189.329 229.83L189.345 229.846Z" fill="#FFBB00"/>
<path d="M213.471 210.476C205.104 206.037 196.179 203.754 186.838 202.317C169.514 199.666 151.614 201.023 135.041 206.548C127.983 208.895 121.58 212.089 115.864 216.623C109.605 221.605 103.889 230.563 108.966 237.428C108.679 233.037 109.541 229.173 112.144 226.028C110.483 230.738 109.429 235.512 112.032 240.159C110.595 228.806 122.347 220.871 131.815 216.975C153.195 208.177 180.036 207.841 201.927 215.186C210.309 217.996 222.796 224.431 224.664 233.948C225.063 235.975 223.961 238.099 223.434 240.303C226.947 238.099 229.486 234.171 229.821 229.94C230.109 226.347 228.32 222.994 226.149 220.264C222.748 216.001 218.341 213.047 213.487 210.476H213.471Z" fill="#FFBB00"/>
<path d="M191.021 239.585C177.737 233.422 159.965 234.172 146.122 238.93C139.974 241.038 129.181 247.09 131.927 254.993C133.204 249.98 134.61 247.84 139.16 245.349C136.063 248.08 133.747 251.305 134.466 255.536C136.813 248.766 139.24 247.728 144.86 244.439C146.76 243.321 148.645 242.683 150.577 243.289L143.886 247.329C141.411 248.83 139.24 251.097 138.106 253.7C136.765 256.75 137.164 260.582 140.006 262.37C140.054 259.879 139.671 257.436 140.661 255.472C144.445 247.92 157.969 245.237 165.506 246.052C157.235 247.329 144.349 249.229 141.3 258.394C141.076 259.065 141.06 264.621 143.344 264.941C142.817 261.125 144.254 258.522 147.431 256.638C151.742 254.083 156.852 252.471 161.817 252.534C156.724 253.572 146.026 257.149 146.186 262.849C146.234 264.685 147.208 266.793 148.692 267.815C148.772 266.346 148.884 265.452 149.507 264.382C149.906 267.384 150.848 268.805 153.259 269.875C157.155 271.615 161.131 273.228 165.57 272.892C170.631 272.509 175.405 271.36 179.653 268.517C180.93 267.671 182.702 265.404 182.83 263.999C183.118 260.757 180.068 259.608 177.88 258.41C180.275 258.666 182.559 259.895 184.443 261.62C185.449 262.53 185.337 264.254 185.401 265.755C187.54 264.941 189.345 263.264 190.031 261.141C190.606 259.352 189.472 257.372 188.195 256.063C185.161 252.966 181.265 252.119 177.306 250.395C183.916 250.395 189.632 252.343 192.522 258.091C193.448 255.44 192.139 253.077 190.223 251.417C186.662 248.335 174.799 246.77 170.216 246.179C173.857 245.796 177.306 246.627 180.866 247.249C185.097 247.984 189.217 249.006 192.458 251.768C195.3 254.179 195.923 257.564 193.975 260.853C196.913 259.959 199.532 258.267 200.809 255.536C202.182 252.614 201.24 249.373 199.564 246.818C197.408 243.513 194.678 241.294 191.021 239.601V239.585Z" fill="#FFBB00"/>
<path d="M26.3685 79.3076C32.931 71.388 39.9725 64.4902 48.0199 58.1033C70.8688 39.9647 96.5439 27.0314 124.566 18.9839C132.853 16.6048 140.805 14.8166 149.283 13.14C159.039 11.208 168.571 10.1701 178.519 9.70705C205.168 8.47758 228.911 14.561 253.197 24.8758C263.48 29.2348 272.565 34.7594 282.193 40.5555C274.465 33.7056 265.556 29.0273 256.71 23.6942C249.429 19.3352 243.058 16.3973 235.33 13.3954C218.932 7.02457 202.166 2.6496 184.618 0.781446C160.348 -1.80522 134.817 2.33025 111.377 8.765C93.9572 13.5551 77.3514 20.0218 61.2885 28.2289C49.0737 34.472 37.769 41.7051 27.5501 50.8223C18.1774 59.1731 10.5451 69.0248 5.6432 80.5691C1.47578 90.3728 -0.807509 100.656 0.262287 111.37C2.0506 102.763 2.13043 97.558 5.86674 88.9997C15.8302 66.0869 37.9606 47.134 59.4523 35.2385C71.731 28.4365 84.3929 23.1514 97.6137 18.3932C107.881 14.7048 118.02 12.0223 128.686 9.53144C142.274 6.35398 155.718 4.34213 169.625 4.24633L174.91 4.21436C177.992 4.1984 181.01 4.37405 184.044 4.62952L189.792 5.1245C187.381 5.49174 184.922 5.10855 182.415 5.09258C160.923 4.91694 145.004 7.88682 124.343 13.1719C101.542 19.0159 79.7305 27.5902 59.3406 39.326C39.0144 51.0299 17.7463 69.6795 8.70888 91.778C3.56748 104.344 2.59349 118.14 5.14822 131.249C5.72304 124.83 4.31793 117.9 5.35579 111.21C7.22394 99.1548 12.1737 88.1215 19.3909 78.206C35.342 56.3151 58.2548 40.3 83.3391 30.2887C90.7159 27.3507 97.1027 22.816 105.837 21.0756L94.8354 25.6742L85.0156 30.2408C54.4706 44.4515 15.7025 72.6494 8.51727 107.601C7.76682 111.258 7.23991 114.787 7.57522 118.523C9.01225 112.551 10.3056 106.675 12.9082 100.943C16.4849 93.0873 20.8758 85.95 26.3845 79.3076H26.3685Z" fill="#FFBB00"/>
<path d="M200.697 176.596C176.603 171.072 152.525 172.397 129.101 179.901C118.595 183.27 102.979 188.923 95.075 200.962C93.2228 203.788 89.1831 209.935 90.0454 217.823C90.3647 220.697 91.2429 222.981 91.9455 224.465C91.6101 222.502 91.3068 219.276 92.1211 215.492C92.3287 214.518 93.0472 211.069 95.7456 207.141C102.436 197.417 112.687 191.669 123.528 187.486C128.574 185.538 133.46 183.446 138.889 182.887L124.662 187.741C114.283 192.42 101.717 199.509 96.5599 210.031C93.8775 215.492 93.0472 221.767 95.9372 227.1C95.3305 220.953 96.6078 215.54 100.36 210.893C103.697 206.758 107.577 203.389 112.176 200.643C128.207 191.062 146.393 186.943 164.995 186.081C174.591 185.634 183.916 186.432 193.432 188.156C210.102 191.19 232.648 199.956 240.36 216.195C242.515 220.729 242.196 225.567 239.497 229.878C245.118 228.058 246.028 218.27 244.894 214.598L243.186 209.057C245.996 213.161 246.762 217.871 246.331 222.709C250.85 216.993 248.503 207.636 244.607 202.207C234.771 188.54 216.728 180.253 200.697 176.58V176.596Z" fill="#FFBB00"/>
<path d="M196.801 224.191C178.056 216.783 150.8 218.427 133.093 228.407C129.612 230.371 126.466 232.702 124.055 235.863C122.395 238.051 119.632 244.422 122.602 246.913C122.491 242.17 124.454 237.668 128.622 235.049L126.019 238.769C124.502 240.941 123.912 243.591 124.183 246.034C125.844 239.983 132.757 234.458 137.787 232.143C150.896 226.107 165.218 224.303 179.525 226.012C190.494 227.321 210.07 232.303 210.741 246.226C214.716 242.202 213.758 236.933 210.581 233.197C206.941 228.902 202.023 226.251 196.801 224.175V224.191Z" fill="#FFBB00"/>
<path d="M249.189 66.5643C213.215 52.13 176.268 50.9165 138.777 60.6884C108.12 68.672 77.0001 83.7129 53.7999 105.46C45.034 113.683 37.9446 122.768 32.899 133.722C27.3744 145.745 25.2029 161.92 31.8132 173.688C31.7174 173.081 31.5737 172.219 31.446 171.165C31.446 171.165 28.7316 158.152 32.8351 146.352C36.8588 134.744 43.6449 124.892 51.8519 115.791C63.6197 103.704 76.8884 93.0697 92.2647 85.8525C81.4549 92.3671 70.9646 98.722 61.6717 107.392C53.2571 115.232 45.0979 122.864 39.19 135.861C36.6832 141.386 27.7097 161.185 35.9966 178.302C36.5874 179.531 37.1622 180.506 37.5614 181.176L36.3479 176.897C33.6016 167.269 34.847 157.034 38.9026 147.901C46.1357 131.55 60.4901 118.074 75.1479 108.143C92.2008 96.5825 111.026 88.3594 130.745 82.3078C165.426 71.6578 201.767 70.9872 236.352 82.3717C254.139 88.2316 270.697 96.6463 285.019 108.717C304.723 125.339 321.68 150.168 310.886 177.041C331.324 154.575 320.914 125.243 303.781 104.837C289.746 88.1199 269.436 74.6756 249.189 66.5483V66.5643Z" fill="#FFBB00"/>
<path d="M307.006 64.7467C286.169 44.3567 260.734 29.4434 232.951 20.5498C215.643 15.0092 197.775 12.0712 179.573 12.8696C163.286 13.5881 147.734 16.3344 132.103 20.438C115.641 24.7651 100.121 30.4174 85.0316 38.2413C69.5595 46.2568 55.0933 55.6934 42.3037 67.5569C24.5802 84.003 11.7906 102.094 9.95435 126.891C10.0342 133.757 10.2577 140.335 12.9721 146.514C11.2956 137.221 11.3594 128.376 13.9142 119.37C21.1153 94.0463 38.6153 76.0833 59.8036 61.3617C75.1959 50.6637 91.674 42.281 109.334 35.958C118.866 32.557 128.031 28.9485 138.09 27.4476C104.927 36.1017 71.9865 51.4621 45.8484 74.2152C35.2143 83.4761 26.3526 94.3817 20.3489 107.139C16.0538 116.289 14.4092 125.773 14.3613 135.816C14.3613 138.291 14.2016 140.511 14.968 142.698C14.4092 119.226 30.2326 96.8725 47.2535 82.3744C65.6476 66.7107 85.5426 55.7093 107.944 46.7518C121.644 41.2751 135.44 37.411 149.922 34.5529C177.433 29.14 200.426 29.2199 227.778 36.0379C252.99 42.3289 276.397 54.5278 296.388 71.0697C304.867 78.0952 312.148 85.967 318.455 94.8607C324.905 103.93 329.424 113.59 332.059 124.591C333.528 130.771 333.448 136.439 333.607 142.81C338.11 128.823 331.899 108.337 324.586 95.9624C319.524 87.404 314.096 79.4364 306.974 72.4428L299.055 64.6669C297.745 63.8845 296.388 62.9584 295.813 61.3936C312.531 74.6303 327.173 93.6152 334.07 113.909C335.955 119.466 336.37 124.879 337.072 130.787C337.647 122.356 336.865 113.941 333.783 105.75C327.971 90.2781 318.886 76.3229 307.022 64.7308L307.006 64.7467Z" fill="#FFBB00"/>
<path d="M280.597 62.7817C254.698 45.4733 225.047 35.3342 193.895 33.8173C178.679 33.0669 163.845 34.6795 148.98 37.7452C143.28 38.9268 138.202 40.284 132.566 41.8009C100.312 50.4231 60.091 70.877 37.9447 96.3605C22.5045 114.132 12.7326 136.885 21.77 160.165C21.3548 154.928 20.4766 150.297 20.8918 145.188C22.5204 124.814 34.863 107.026 49.2494 93.2309C57.6321 85.7264 66.2703 78.5731 76.1859 73.1124C66.6854 79.9303 57.3766 86.5088 49.1376 94.7957C32.9629 111.05 21.4826 129.827 23.5264 153.602C23.7499 156.141 23.702 158.52 24.7558 160.947C24.165 152.006 25.2668 143.495 28.7476 135.017C33.3302 123.872 40.2918 114.116 48.8981 105.653C69.0805 85.7902 97.0868 71.0207 123.912 62.3825C135.903 58.5185 147.591 55.8679 160.029 53.9519C191.165 49.1458 224.185 53.3451 253.229 65.6397C275.232 74.9486 298.384 91.1073 312.1 110.986C317.768 119.209 322.207 127.927 324.235 137.779C325.704 144.916 325.368 151.846 324.746 159.079C325.305 158.265 325.847 157.179 326.151 156.125C330.095 142.17 326.167 129.173 321.536 115.904C325.305 122.419 326.774 129.764 328.386 137.172L329.296 147.407C333.815 128.247 323.899 106.021 311.828 91.0434C302.823 79.8664 292.333 70.6374 280.597 62.7976V62.7817Z" fill="#FFBB00"/>
<path d="M305.936 138.337C298.272 123.104 284.94 110.538 270.841 101.357C265.412 97.8284 260.191 94.7308 254.267 91.9525C219.267 75.6022 180.866 71.834 143.311 81.3663C121.628 86.875 100.999 95.0342 82.1415 107.009C64.3062 118.346 43.4692 137.044 39.0463 158.44C37.3059 166.854 37.9605 175.365 41.8086 183.045C40.1799 172.842 40.9144 163.262 45.1457 154.065C49.7762 144.021 56.3866 135.559 64.3541 127.847C72.0503 120.869 79.954 114.227 89.3426 109.58C79.3792 116.207 69.8787 122.785 61.7675 131.631C56.2269 137.682 45.5289 150.296 43.6448 166.008C42.4313 176.227 45.018 185.264 45.018 185.264C45.8483 188.138 46.8063 190.438 47.5727 192.05C39.9245 171.708 50.8779 152.947 65.4718 139.135C87.0274 118.713 119.999 105.285 149.012 99.7285C173.537 95.0342 198.59 95.6728 222.7 101.98C234.516 105.062 245.692 109.133 256.263 115.073C266.338 120.725 275.296 127.272 283.247 135.591C295.127 148.013 305.729 167.381 298.943 184.418L296.675 190.118C307.964 178.798 307.773 162.399 302.471 148.173C300.523 142.967 297.474 138.672 294.855 133.643C298.607 137.954 301.178 142.872 303.493 148.013C307.932 157.897 308.635 168.451 305.872 179.149C313.872 167.189 312.243 150.823 305.984 138.353L305.936 138.337Z" fill="#FFBB00"/>
<path d="M265.348 176.357C260.446 169.619 254.602 164.398 247.8 159.608C237.47 152.343 226.101 147.584 213.886 144.231C199.372 140.24 184.762 138.371 169.737 139.042C160.396 139.457 151.742 140.479 142.593 142.523C120.335 147.473 93.6539 158.266 78.533 175.942C70.5016 185.331 64.8812 200.372 72.737 211.373C68.873 195.374 77.6708 182.664 88.8318 172.701C95.5061 167.703 102.196 162.657 110.132 159.672C97.6936 166.825 82.429 175.942 76.617 189.817C73.2 197.993 72.7849 207.142 77.3834 214.838C74.4455 201.569 79.523 192.085 88.6243 183.111C100.025 172.302 117.7 164.43 132.901 160.374C160.524 152.997 189.536 153.588 216.776 162.242C226.452 165.324 235.234 169.635 243.473 175.367C255.512 183.75 268.829 200.068 261.261 215.812C264.023 214.535 265.348 211.772 266.322 209.042C268.43 203.07 268.047 197.13 266.482 190.903C269.276 196.092 268.861 201.984 268.174 208.052C275.328 197.817 272.15 185.682 265.38 176.373L265.348 176.357Z" fill="#FFBB00"/>
<path d="M271.831 155.885C255.8 138.673 231.897 127.799 208.952 123.408C172.292 116.399 134.194 122.147 101.031 139.088C83.2273 148.173 59.4363 166.168 58.8136 187.963C58.6539 193.615 59.4842 199.236 62.949 203.85C62.2625 199.843 61.4162 196.474 61.7196 192.625C62.2465 186.015 64.3063 179.788 67.819 174.152C71.0444 168.962 74.637 164.012 79.475 160.292C75.9463 164.555 72.2738 168.116 69.3519 172.762C63.2524 182.438 61.7356 194.765 66.5736 205.511C64.4819 193.456 67.6274 185.504 74.8126 175.668C87.4266 159.893 110.834 148.987 129.899 143.399C161.131 134.234 192.969 134.617 223.77 144.98C238.124 149.818 253.261 158.552 263.448 169.681C273.619 180.826 279.798 194.909 271.08 209.343C280.916 202.174 281.906 188.33 278.297 177.744C279.846 180.091 280.134 182.806 280.788 185.552C281.922 190.39 281.203 194.973 280.054 199.954C290.512 185.137 282.944 167.797 271.831 155.885Z" fill="#FFBB00"/>
<path d="M186.678 157.962C164.787 155.567 142.896 158.552 122.315 166.233C104.943 172.715 78.8045 187.644 79.6986 208.992C79.8743 213.08 80.7844 217.152 83.6904 220.153C81.2953 212.234 82.1895 204.107 86.5964 197.193C93.3984 186.511 107.928 177.314 119.808 173.019C118.131 174.424 116.104 174.983 114.188 176.052C103.633 181.577 90.1092 190.758 86.0376 202.478C83.8181 208.833 84.0257 216.066 87.0435 222.022C85.6863 215.683 86.1653 209.727 89.4705 204.218C93.2228 197.895 98.444 192.961 104.639 188.906C112.894 183.429 121.708 179.836 131.304 177.01C153.403 170.48 176.667 169.618 199.244 174.216C203.843 175.158 207.851 176.404 212.273 177.857C226.867 182.647 244.591 192.882 250.61 207.651C252.83 213.096 252.383 218.493 249.253 223.874C252.862 222.149 254.953 218.653 255.48 214.788L256.55 207.076C256.917 210.461 256.614 213.767 256.119 217.311C264.757 207.587 258.738 193.951 251.361 185.744C235.681 168.324 209.479 160.5 186.678 158.009V157.962Z" fill="#FFBB00"/>
<path d="M292.029 190.932C296.388 184.897 298.336 177.376 297.745 169.744C295.877 152.771 283.758 138.688 271.112 128.182C261.947 120.565 251.744 114.753 240.663 110.33C213.87 99.6165 185.656 96.3113 157.091 100.75C125.524 105.668 90.6679 119.336 67.3719 141.578C60.57 148.061 54.9974 155.278 51.3569 163.964C47.0618 174.183 46.7105 186.254 52.8419 195.627C50.0955 186.541 50.4628 177.233 54.231 168.642C60.3784 154.639 72.2579 142.744 84.6803 134.281C87.0594 132.652 89.1511 130.864 91.9134 129.954C78.6287 138.943 66.2383 148.332 58.4942 162.719C52.8738 173.161 51.1015 188.218 57.0093 198.644C50.0476 173.257 71.236 153.41 90.8915 141.69C105.885 132.764 121.979 126.697 139.032 122.785C171.477 115.36 205.423 116.813 236.32 129.427C253.373 136.389 270.218 147.358 280.644 162.782C284.333 168.243 286.776 174.087 287.75 180.65C288.804 187.803 286.92 194.365 283.566 200.8C285.818 198.597 287.462 196.489 289.267 194.142C293.865 185.983 294.041 176.77 291.901 167.557C294.999 174.933 294.584 183.316 292.045 190.916L292.029 190.932Z" fill="#FFBB00"/>
</svg>
